<?xml version="1.0" standalone="no"?>
<!DOCTYPE svg PUBLIC "-//W3C//DTD SVG 20010904//EN"
 "http://www.w3.org/TR/2001/REC-SVG-20010904/DTD/svg10.dtd">
<svg version="1.0" xmlns="http://www.w3.org/2000/svg"
 width="512.000000pt" height="512.000000pt" viewBox="0 0 512.000000 512.000000"
 preserveAspectRatio="xMidYMid meet">

<g transform="translate(0.000000,512.000000) scale(0.100000,-0.100000)"
fill="#000000" stroke="none">
<path d="M2453 4720 c-121 -22 -249 -92 -323 -178 -48 -55 -102 -164 -121
-242 -17 -68 -16 -210 0 -270 41 -144 162 -293 291 -358 271 -135 603 -31 742
234 88 167 88 373 1 537 -39 73 -155 187 -224 221 -108 52 -257 75 -366 56z
m250 -180 c80 -30 167 -113 209 -198 31 -62 33 -73 33 -167 -1 -128 -24 -191
-101 -274 -147 -159 -399 -168 -567 -20 -89 77 -142 239 -118 357 32 158 149
284 298 322 60 15 181 5 246 -20z"/>
<path d="M2129 3621 c-109 -36 -232 -95 -334 -162 -162 -107 -398 -374 -442
-500 -26 -76 18 -161 98 -193 56 -23 84 -15 201 51 92 52 299 143 326 143 8 0
12 -21 12 -69 0 -59 4 -74 24 -97 31 -37 90 -39 117 -5 17 20 19 41 19 168 0
139 -1 145 -25 168 -14 15 -36 25 -52 25 -54 0 -298 -91 -430 -160 l-133 -69
24 41 c79 132 229 285 369 376 122 78 297 152 297 124 0 -22 86 -96 143 -123
185 -86 432 -42 544 97 29 37 30 37 69 24 140 -46 336 -173 456 -296 62 -65
178 -217 178 -234 0 -4 -44 17 -97 46 -114 63 -271 127 -388 157 -72 18 -87
20 -108 8 -39 -21 -47 -52 -47 -191 0 -121 1 -131 24 -156 18 -21 32 -28 61
-28 57 0 75 28 75 120 0 41 4 74 9 74 41 0 239 -89 365 -163 54 -32 79 -41
116 -41 59 0 114 33 140 85 36 69 25 116 -54 236 -132 201 -314 361 -535 472
-88 45 -248 101 -286 101 -32 0 -72 -35 -80 -70 -7 -33 -62 -86 -111 -106
-131 -55 -304 -5 -353 102 -39 85 -58 89 -192 45z"/>
<path d="M2407 2795 c-296 -56 -511 -242 -609 -525 -31 -92 -33 -101 -33 -255
0 -140 3 -169 23 -235 101 -321 343 -519 685 -561 326 -40 654 143 798 446 61
127 74 189 74 350 0 119 -4 151 -23 215 -85 271 -289 475 -552 550 -98 28
-258 35 -363 15z m316 -170 c281 -74 467 -324 467 -630 0 -223 -147 -456 -351
-553 -116 -56 -158 -66 -284 -66 -159 -1 -278 39 -395 133 -161 129 -245 300
-244 496 1 176 57 322 167 441 94 101 220 168 361 194 66 12 205 4 279 -15z"/>
<path d="M1204 2631 c-44 -27 -77 -73 -123 -172 -98 -209 -126 -342 -126 -594
1 -164 4 -203 24 -284 30 -120 41 -131 128 -129 82 2 130 -19 187 -83 94 -104
110 -235 41 -329 -28 -38 -32 -76 -10 -107 20 -28 154 -139 232 -192 200 -134
480 -221 712 -221 111 0 152 15 188 69 17 24 23 49 23 85 0 65 -26 108 -86
144 -108 65 -253 164 -302 207 l-53 47 45 28 c71 45 83 93 36 140 -32 32 -73
25 -168 -31 -114 -67 -122 -75 -122 -119 0 -34 8 -45 83 -117 98 -94 203 -174
317 -243 l83 -50 -65 0 c-228 0 -518 113 -718 279 l-35 29 18 38 c10 20 21 65
24 98 20 214 -148 447 -352 488 l-53 10 -11 75 c-35 237 9 508 116 715 l38 73
6 -150 c6 -156 15 -221 50 -368 22 -92 48 -127 92 -127 24 0 190 91 225 123
43 40 18 118 -43 133 -17 4 -39 -2 -69 -20 -25 -14 -49 -26 -54 -26 -16 0 -42
204 -42 337 0 146 -15 194 -70 233 -46 33 -124 38 -166 11z"/>
<path d="M3775 2634 c-44 -23 -73 -53 -84 -88 -5 -17 -12 -103 -15 -191 -5
-145 -23 -285 -39 -301 -3 -4 -26 5 -51 20 -52 30 -106 34 -129 9 -25 -29 -31
-70 -13 -98 19 -29 222 -145 254 -145 41 0 68 40 90 136 33 138 43 217 51 369
l6 140 42 -85 c103 -213 144 -459 112 -687 -6 -43 -14 -81 -18 -85 -4 -4 -31
-12 -61 -18 -117 -22 -221 -114 -292 -257 -37 -75 -42 -93 -46 -171 -4 -82 0
-102 31 -182 12 -30 -192 -169 -340 -230 -112 -47 -254 -80 -368 -87 l-100 -5
90 57 c129 81 225 155 316 243 66 64 79 82 79 108 0 45 -22 65 -137 129 -117
65 -143 66 -176 4 -26 -48 -12 -80 53 -117 l51 -29 -53 -45 c-84 -72 -177
-137 -255 -180 -118 -65 -157 -128 -133 -217 11 -43 64 -97 106 -107 42 -11
252 2 339 21 252 53 518 194 673 358 28 31 52 64 52 74 0 10 -16 43 -35 73
-29 44 -35 64 -35 107 0 81 34 157 99 224 64 65 103 80 184 72 46 -4 55 -2 73
18 38 42 73 236 74 403 0 110 -23 270 -56 384 -28 97 -123 304 -157 341 -45
49 -125 65 -182 35z"/>
<path d="M566 1495 c-190 -52 -342 -205 -391 -392 -19 -73 -19 -222 0 -293 73
-274 344 -453 620 -411 88 14 215 75 283 136 202 182 251 476 117 700 -76 127
-204 224 -341 260 -71 18 -220 18 -288 0z m292 -167 c61 -23 158 -108 195
-171 55 -94 72 -223 42 -323 -53 -179 -271 -311 -453 -274 -123 25 -233 112
-285 223 -74 157 -53 316 58 435 118 128 285 169 443 110z"/>
<path d="M4230 1484 c-202 -68 -340 -232 -380 -455 -57 -316 220 -628 560
-631 149 -2 275 50 381 156 67 67 116 144 145 227 30 84 27 272 -5 359 -62
170 -188 293 -354 345 -110 35 -242 35 -347 -1z m348 -175 c243 -119 300 -423
117 -627 -115 -128 -301 -160 -465 -80 -119 58 -197 161 -221 290 -10 55 -9
76 5 140 59 263 325 394 564 277z"/>
</g>
</svg>
