<svg xmlns="http://www.w3.org/2000/svg" xmlns:xlink="http://www.w3.org/1999/xlink" width="280" zoomAndPan="magnify" viewBox="427 118 173 339" height="280" preserveAspectRatio="xMidYMid meet" version="1.2"><defs><clipPath id="ce65678064"><path d="M 0 0.140625 L 1024 0.140625 L 1024 575.859375 L 0 575.859375 Z M 0 0.140625 "/></clipPath><clipPath id="54ecbfb102"><path d="M 427 177.59375 L 600 177.59375 L 600 457.265625 L 427 457.265625 Z M 427 177.59375 "/></clipPath><clipPath id="598e3b8f3f"><path d="M 448.3125 118.324219 L 491.433594 118.324219 L 491.433594 161.445312 L 448.3125 161.445312 Z M 448.3125 118.324219 "/></clipPath><clipPath id="23b69bc684"><path d="M 469.871094 118.324219 C 457.964844 118.324219 448.3125 127.976562 448.3125 139.882812 C 448.3125 151.792969 457.964844 161.445312 469.871094 161.445312 C 481.78125 161.445312 491.433594 151.792969 491.433594 139.882812 C 491.433594 127.976562 481.78125 118.324219 469.871094 118.324219 Z M 469.871094 118.324219 "/></clipPath></defs><g id="098611e2f3"><g clip-rule="nonzero" clip-path="url(#54ecbfb102)"><path style=" stroke:none;fill-rule:nonzero;fill:#1e3a5f;fill-opacity:1;" d="M 588.878906 259.21875 C 582.578125 256.125 575.058594 256.125 568.738281 259.238281 C 567.84375 259.691406 566.980469 260.191406 566.183594 260.761719 C 564.292969 256.542969 560.875 252.917969 556.347656 250.589844 C 549.476562 247.113281 540.925781 247.113281 534.035156 250.589844 C 530.882812 252.210938 528.304688 254.484375 526.355469 257.117188 C 524.429688 254.480469 521.828125 252.210938 518.679688 250.589844 C 511.8125 247.09375 503.277344 247.09375 496.378906 250.589844 C 494.855469 251.390625 493.484375 252.34375 492.21875 253.390625 L 490.597656 197.820312 C 490.273438 184.289062 480.765625 177.589844 472.042969 177.589844 C 462.648438 177.589844 452.585938 184.097656 451.460938 197.839844 L 449.304688 296.613281 L 449.015625 296.65625 C 448.84375 296.671875 448.675781 296.714844 448.5 296.746094 C 425.496094 302.914062 424.238281 319.027344 429.832031 344.777344 C 435.289062 369.84375 443.558594 379.984375 450.175781 388.140625 C 455.773438 394.972656 459.460938 399.496094 459.589844 410.835938 L 459.589844 425.496094 C 459.589844 452.109375 473.945312 457.320312 498.726562 457.320312 L 538.074219 457.320312 C 562.871094 457.320312 577.222656 452.109375 577.222656 425.496094 L 577.265625 414.652344 L 577.324219 408.429688 C 577.761719 399.304688 581.292969 394.664062 585.777344 388.960938 C 591.867188 381.226562 599.445312 371.585938 599.394531 348.203125 L 599.394531 275.121094 C 599.394531 268.535156 595.359375 262.441406 588.894531 259.21875 Z M 585.523438 266.050781 C 589.238281 267.902344 591.570312 271.207031 591.722656 274.757812 C 591.703125 274.894531 591.652344 274.988281 591.652344 275.140625 L 591.722656 315.117188 C 591.515625 315.347656 591.285156 315.558594 591.113281 315.730469 C 590.160156 316.570312 589.105469 317.292969 587.941406 317.871094 C 583.207031 320.269531 577.308594 320.292969 572.570312 317.871094 C 568.90625 316.015625 566.347656 312.902344 565.890625 311.011719 C 565.851562 310.921875 567.757812 269.796875 567.757812 269.796875 C 568.851562 268.289062 570.296875 266.972656 572.128906 266.054688 C 576.257812 264.011719 581.394531 264.027344 585.523438 266.050781 Z M 552.875 257.386719 C 557.398438 259.691406 560.203125 263.894531 560.222656 268.34375 L 557.628906 311.90625 C 557.628906 316.394531 554.816406 320.589844 550.296875 322.882812 C 545.539062 325.308594 539.660156 325.308594 534.929688 322.882812 C 530.402344 320.589844 527.597656 316.375 527.578125 312.132812 L 530.175781 268.609375 C 530.175781 268.570312 530.160156 268.535156 530.160156 268.492188 C 530.160156 268.453125 530.191406 268.417969 530.191406 268.382812 C 530.191406 263.914062 533.003906 259.691406 537.503906 257.40625 C 542.261719 254.976562 548.160156 254.996094 552.894531 257.386719 Z M 515.207031 257.386719 C 519.734375 259.691406 522.539062 263.894531 522.558594 268.34375 L 520.785156 298.296875 C 516.960938 293.007812 511.085938 289.820312 507.746094 289.820312 C 507.726562 289.820312 492.527344 291.289062 492.527344 291.289062 L 492.527344 268.382812 C 492.527344 263.914062 495.339844 259.691406 499.859375 257.386719 C 504.59375 254.976562 510.496094 254.976562 515.207031 257.386719 Z M 459.066406 198.242188 C 459.828125 188.988281 466.046875 184.878906 471.816406 185.203125 C 476.835938 185.355469 482.773438 188.792969 482.984375 197.992188 L 484.914062 268.457031 L 484.914062 291.480469 C 484.914062 291.746094 485.003906 291.960938 485.0625 292.210938 L 456.941406 295.683594 Z M 569.617188 425.496094 C 569.617188 444.492188 562.839844 449.703125 538.082031 449.703125 L 498.734375 449.703125 C 473.992188 449.703125 467.21875 444.496094 467.21875 425.496094 L 467.21875 414.632812 L 569.617188 414.632812 Z M 579.792969 384.261719 C 575.230469 390.0625 570.59375 396.113281 569.789062 407.035156 L 467.007812 407.035156 C 466.046875 395.597656 461.410156 389.816406 456.105469 383.300781 C 449.976562 375.800781 442.339844 366.449219 437.304688 343.15625 C 431.59375 316.945312 434.359375 308.507812 450.226562 304.171875 L 504.882812 297.414062 C 509.351562 297.414062 513.546875 300.21875 515.855469 304.746094 C 518.28125 309.480469 518.28125 315.359375 515.855469 320.113281 C 513.757812 324.234375 509.730469 326.011719 504.152344 327.5 L 469.3125 334.179688 C 467.25 334.589844 465.898438 336.570312 466.277344 338.652344 C 466.679688 340.710938 468.683594 342.046875 470.746094 341.667969 L 492.167969 337.5625 C 492.335938 337.691406 492.476562 337.863281 492.667969 337.984375 C 505.472656 345.386719 507.25 361.464844 507.25 377.753906 C 507.25 379.871094 508.953125 381.566406 511.066406 381.566406 C 513.171875 381.566406 514.871094 379.871094 514.871094 377.753906 C 514.871094 362.4375 513.207031 345.867188 502.210938 335.632812 L 505.859375 334.929688 C 512.464844 333.171875 519.085938 330.574219 522.640625 323.574219 C 522.847656 323.175781 523.003906 322.753906 523.171875 322.351562 C 525.160156 325.347656 527.984375 327.90625 531.480469 329.683594 C 534.917969 331.441406 538.769531 332.296875 542.625 332.296875 C 546.46875 332.296875 550.324219 331.441406 553.761719 329.683594 C 558.058594 327.503906 561.355469 324.128906 563.289062 320.230469 C 564.949219 321.949219 566.875 323.515625 569.128906 324.660156 C 572.566406 326.417969 576.421875 327.277344 580.277344 327.277344 C 584.117188 327.277344 587.972656 326.421875 591.410156 324.660156 C 591.523438 324.609375 591.617188 324.527344 591.753906 324.449219 L 591.789062 348.222656 C 591.800781 368.949219 585.710938 376.722656 579.792969 384.261719 "/></g><g clip-rule="nonzero" clip-path="url(#598e3b8f3f)"><g clip-rule="nonzero" clip-path="url(#23b69bc684)"><path style=" stroke:none;fill-rule:nonzero;fill:#1e3a5f;fill-opacity:1;" d="M 448.3125 118.324219 L 491.433594 118.324219 L 491.433594 161.445312 L 448.3125 161.445312 Z M 448.3125 118.324219 "/></g></g></g></svg>